<svg version="1.0" xmlns="http://www.w3.org/2000/svg"
 width="96.000000pt" height="96.000000pt" viewBox="0 0 96.000000 96.000000"
 preserveAspectRatio="xMidYMid meet">

<g transform="translate(0.000000,96.000000) scale(0.100000,-0.100000)"
fill="#000000" stroke="none">
<path d="M282 853 c-23 -9 -44 -64 -38 -98 5 -26 -2 -47 -39 -111 l-45 -79 0
-202 c0 -111 3 -208 6 -217 5 -14 42 -16 304 -16 262 0 299 2 304 16 3 9 6
106 6 217 l0 201 -60 108 c-33 59 -60 118 -60 132 0 51 -17 56 -198 55 -92 0
-173 -3 -180 -6z m332 -19 c9 -3 16 -18 16 -32 0 -15 27 -75 60 -134 l60 -107
0 -205 0 -206 -280 0 -280 0 0 207 0 207 50 88 c44 75 49 90 38 107 -9 15 -9
25 0 45 11 25 11 25 164 29 84 1 154 4 155 5 1 1 8 -1 17 -4z"/>
</g>
</svg>